PathFileType	4	(X/Y/Z)	Patient4_TMGait_0pt4_01_left_40.trc.trc
DataRate	CameraRate	NumFrames	NumMarkers	Units	OrigDataRate	OrigDataStartFrame	OrigNumFrames
76.923076923077	76.923076923077	4	33	mm	76.923076923077	18	       141
Frame#	Time	Sacral			L.Shoulder			Chest			R.Shoulder			Neck			R.ASIS			L.ASIS			R.Thigh.Superior			R.Thigh.Lateral			R.Thigh.Inferior			R.Patella			L.Thigh.Superior			L.Thigh.Lateral			L.Thigh.Inferior			L.Patella			L.Shank.Superior			L.Shank.Lateral			L.Shank.Inferior			R.Shank.Superior			R.Shank.Lateral			R.Shank.Inferior			R.Heel			R.Midfoot.Superior			R.Midfoot.Lateral			R.Toe			L.Heel			L.Midfoot.Lateral			L.Midfoot.Superior			L.Toe			L.Elbow			L.Wrist			R.Elbow			R.Wrist			
		X1	Y1	Z1	X2	Y2	Z2	X3	Y3	Z3	X4	Y4	Z4	X5	Y5	Z5	X6	Y6	Z6	X7	Y7	Z7	X8	Y8	Z8	X9	Y9	Z9	X10	Y10	Z10	X11	Y11	Z11	X12	Y12	Z12	X13	Y13	Z13	X14	Y14	Z14	X15	Y15	Z15	X16	Y16	Z16	X17	Y17	Z17	X18	Y18	Z18	X19	Y19	Z19	X20	Y20	Z20	X21	Y21	Z21	X22	Y22	Z22	X23	Y23	Z23	X24	Y24	Z24	X25	Y25	Z25	X26	Y26	Z26	X27	Y27	Z27	X28	Y28	Z28	X29	Y29	Z29	X30	Y30	Z30	X31	Y31	Z31	X32	Y32	Z32	X33	Y33	Z33	

18	50.441000000000	817.145784972139	1004.544244240218	528.782059332524	966.730281024897	1425.429829420995	310.373890829861	1098.430176390156	1357.104221217083	448.202101162371	1056.882804635553	1438.844437023905	632.558275755999	993.724583552524	1491.308874817732	462.382515646889	1060.255164503397	938.507395318594	606.682741969162	1003.860215175001	961.135362801945	336.462956404439	1068.581845684274	727.795690141652	575.184113513675	979.805208944524	627.465684205136	647.145403774618	1036.424817511543	567.070643130864	559.670199525553	1022.514925072759	480.291438936562	566.632067469794	1089.944345946931	781.596665018784	366.251589603252	1048.311636339541	653.018929386792	288.389274462220	1152.342821954620	596.856365627611	352.051280547225	1182.844435154573	533.713328121159	346.313709079256	1167.376337804590	460.823450598086	334.362663583589	1104.509380138539	331.281947445325	277.745235645999	1191.914759780124	231.550324938083	332.202950137632	985.945896947277	394.665887508497	576.536714174776	907.636954428604	299.164372563636	642.654982812849	933.088913417863	200.961480186838	577.154794373569	783.742326339348	43.215501398773	552.464163745690	954.737127359204	95.722571130455	586.471327997442	866.873750022345	36.798710879609	627.387574817195	1075.283511949087	42.557540475264	615.817867670194	1110.224381974756	50.146161093985	365.767851938394	1186.913185480865	55.545555740393	288.639456638501	1255.471844892635	134.997317479886	311.352552212717	1390.355084074741	108.213984524539	290.542943183861	852.277374167092	1081.585983028102	235.329752592094	854.800276313436	821.923454202187	216.156970592507	1190.635578866402	1119.759610575423	733.125246063025	1410.498601192000	1148.366395493876	613.397247631990	
19	50.454000000000	818.405071221955	1003.594146160686	527.359246899771	966.630774452371	1424.495192821649	308.537121875959	1098.624690073818	1356.590888176261	446.241926915923	1057.105878358212	1438.305174637427	630.532834047616	993.660276334756	1490.516546631156	460.450986937902	1061.460797963949	937.786244453807	605.331807245597	1005.053081401266	959.978677457673	335.002116232747	1068.357057552942	726.754691695364	574.192627683618	978.759130292776	626.877508769014	646.267031258618	1034.994943953152	566.033828557328	559.021770883114	1020.296240240033	479.252563802293	565.964497371553	1090.923292778417	779.638870525052	364.112179145613	1046.734949136574	650.433091324368	288.032990876777	1151.288247943684	594.151624969809	350.334955389997	1180.761853575205	530.729233118636	345.515504688810	1164.968073676454	457.812655131792	333.951977163969	1100.896418024533	328.620745668638	278.401073017492	1187.880635934910	228.561143877253	332.628654837027	983.133289064416	393.857055132865	575.967464312938	904.168718199697	299.007780822194	642.361713538079	928.809465528292	200.534038990304	576.947826581710	778.536145532763	43.207388587595	552.520691973535	949.524821460637	95.658164530124	586.491820274581	861.633222538981	36.746331864107	627.429104034078	1070.018222263995	42.446070281553	615.893322533569	1104.960141747295	48.824445226004	367.591855436657	1180.942653289161	52.931521543872	289.826289538250	1250.858325123399	131.040584551378	311.852024563438	1384.926929207642	102.078624362630	289.981028015624	852.854715541191	1080.510726654667	233.280954191756	857.966543725862	820.817780268260	213.417745229995	1193.699786509411	1119.977242637594	728.983317660988	1412.527667066379	1148.782047931184	607.345912628818	
20	50.467000000000	819.878313544667	1002.485848508582	525.601060066215	966.546537423174	1423.440006693156	306.464651694123	1098.806305134240	1356.087725202461	444.148912052814	1057.082510277062	1437.717036299010	628.366375804067	993.451694181709	1489.639123938258	458.311576948516	1062.843168762469	936.985485824693	603.900988364421	1006.658080096896	958.680700676103	333.440180973702	1068.295349120637	725.613686697457	573.179986397728	977.776055521284	626.240987569430	645.304221924329	1033.661548882604	564.912481115215	558.326620824749	1018.156199351552	478.112584481870	565.228654962804	1092.317631375096	777.545652679901	361.949406426184	1045.500261388944	647.735109314717	287.739246306114	1150.553321236740	591.352621849976	348.708143581580	1178.783007585107	527.339884847248	344.822997983991	1162.355467623625	454.295229204961	333.649027063794	1096.397975556632	325.786161411555	279.175955855797	1182.406370429297	224.963015612175	333.240699868319	980.365539237731	392.972757965838	575.333708074144	900.703887078287	298.815881234085	642.022544206502	924.513989690398	200.053256840998	576.713083422940	773.317359744440	43.135719030455	552.574602863053	944.283658986863	95.585925703975	586.497928645278	856.383732120134	36.660449912226	627.469151886252	1064.738957446435	42.343341489978	615.971828744711	1097.255792100886	47.421594024079	369.487972016235	1172.531170977537	50.020887713816	291.053562952756	1244.228315786155	126.290602722181	312.598648988452	1377.348251195005	94.462056595436	289.540333557236	853.812037086461	1079.206729181703	230.902988080327	861.926906124986	819.524806739032	210.273439078189	1196.090799621174	1119.972568597401	725.001722338143	1414.229847968264	1147.949176101176	601.717920902419	
21	50.480000000000	821.534563286739	1001.255621457668	523.523071287287	966.501874625209	1422.275611964264	304.148389577381	1098.993732305067	1355.597627297586	441.916455446184	1056.840640713885	1437.093884769124	626.052096853245	993.133806397864	1488.693433724466	455.952769726633	1064.384816233714	936.112671660256	602.385962306801	1008.641054612392	957.277573310387	331.786976610077	1068.436141269981	724.380467154530	572.148875220669	976.900573027586	625.549972138457	644.234058394745	1032.476690352617	563.709499498566	557.552247568477	1016.175499449803	476.847692900912	564.398091155380	1094.033198497344	775.308525190006	359.822727329329	1044.574015305940	645.002309980886	287.463758985662	1150.053129937174	588.484081350289	347.213564078142	1176.840195351252	523.644732632639	344.276344873968	1159.584593652667	450.412632849598	333.447453462983	1091.316306183567	322.825397629793	279.960077444604	1175.908700573063	220.939901804718	334.006049792619	977.692604368870	392.005166520793	574.610786126180	897.278883516038	298.597896817580	641.616663299738	920.219858167803	199.523248979337	576.439924717687	768.081648889235	43.021563912969	552.627351644125	939.021252122492	95.511076120887	586.488434229017	851.128355798569	36.550448611065	627.506271815616	1059.454591299717	42.235532865914	616.056891246125	1087.794846806077	45.926810236350	371.276235861952	1162.455275751581	46.975045153738	292.228522008595	1236.145209314950	121.077185164143	313.603596672431	1368.289746472435	86.008265037099	289.400688361547	855.155094189188	1077.686937476055	228.212268870604	866.633608379635	818.071003377711	206.759673697949	1197.817016163366	1119.734235299669	721.216206588287	1415.599727612726	1145.864412131921	596.549497491974	
